<svg xmlns="http://www.w3.org/2000/svg" width="300" height="300">
   
    <rect x="100" y="100" width="100" height="100" fill="brown" />

    <polygon points="100,100 200,100 150,50" fill="red" />
  
    <rect x="120" y="140" width="20" height="20" fill="lightblue" stroke="black" stroke-width="2" />
    <rect x="160" y="140" width="20" height="20" fill="lightblue" stroke="black" stroke-width="2" />
    
    <rect x="140" y="160" width="20" height="40" fill="dark-brown" stroke="black" stroke-width="2" />

    <rect x="135" y="200" width="30" height="10" fill="gray" />
 
    <polygon points="220,50 225,65 240,65 230,75 235,90 220,80 205,90 210,75 200,65 215,65"
        fill="yellow" />
 
    <path d="M250,60 A20,20 0 1,0 270,60 A15,15 0 1,1 250,60" fill="yellow" />
</svg>
